# xmcd
#
# Track frame offsets: 
#        150
#        14886
#        36053
#        59695
#        75232
#        85589
#
# Disc length: 1483 seconds
#
# Revision: 3
# Processed by: cddbd v1.5.2PL0 Copyright (c) Steve Scherf et al.
# Submitted via: ExactAudioCopy v0.99pb4
#
DISCID=3a05c906,4005c906
DTITLE=Jeans Team - MS Keine Melodien
DYEAR=2001
DGENRE=Techno
TTITLE0=Keine Melodien (MJ Lan Radio Edit)
TTITLE1=Keine Melodien (Outcomesthelightsticks Remix by OP:L Bastards)
TTITLE2=Keine Melodien (Johannes Heil Remix)
TTITLE3=Keine Melodien (Peaches Remix)
TTITLE4=Keine Melodien (Original Version)
TTITLE5=Keine Melodien (MJ Lan Extended Version)
EXTD=
EXTT0=
EXTT1=
EXTT2=
EXTT3=
EXTT4=
EXTT5=
PLAYORDER=
